<?xml version="1.0" encoding="utf-8"?>
<!-- Generator: Adobe Illustrator 18.1.1, SVG Export Plug-In . SVG Version: 6.00 Build 0)  -->
<!DOCTYPE svg PUBLIC "-//W3C//DTD SVG 1.1//EN" "http://www.w3.org/Graphics/SVG/1.1/DTD/svg11.dtd">
<svg version="1.1" id="Layer_1" xmlns="http://www.w3.org/2000/svg" xmlns:xlink="http://www.w3.org/1999/xlink" x="0px" y="0px"
	 viewBox="2012 10.9 800 800" enable-background="new 2012 10.9 800 800" xml:space="preserve">
<g>
	<g>
		<path fill="#8CC63F" d="M2414.2,517.3c59,0,107.2-48.2,107.2-107.2V379v-15.5v-31.1v-15.5v-31.1c0-59-48.2-107.2-107.2-107.2
			s-107.2,48.2-107.2,107.2v31.1v15.5v31.1V379v31.1C2307.1,469.1,2355.2,517.3,2414.2,517.3z M2367.6,379H2321v-15.5h46.6
			c7.8,0,15.5-6.2,15.5-15.5c0-7.8-6.2-15.5-15.5-15.5H2321v-15.5h46.6c7.8,0,15.5-6.2,15.5-15.5c0-7.8-6.2-15.5-15.5-15.5H2321
			c0-51.3,41.9-91.7,91.7-91.7s91.7,41.9,91.7,91.7h-46.6c-7.8,0-15.5,6.2-15.5,15.5c0,7.8,6.2,15.5,15.5,15.5h46.6v15.5h-46.6
			c-7.8,0-15.5,6.2-15.5,15.5c0,7.8,6.2,15.5,15.5,15.5h46.6V379h-46.6c-7.8,0-15.5,6.2-15.5,15.5c0,7.8,6.2,15.5,15.5,15.5h46.6
			c0,51.3-41.9,91.7-91.7,91.7s-91.7-41.9-91.7-91.7h46.6c7.8,0,15.5-6.2,15.5-15.5C2383.2,386.8,2377,379,2367.6,379z"/>
		<path fill="#8CC63F" d="M2560.3,410.1h-15.5c0,71.5-59,130.5-130.5,130.5s-130.5-59-130.5-130.5h-15.5
			c0,77.7,60.6,141.4,138.3,146v68.3h-54.4V640h54.4h15.5h54.4v-15.5H2422v-69.9C2498.1,551.5,2560.3,487.8,2560.3,410.1z"/>
	</g>
	<path fill="#8CC63F" d="M2411.1,798.4c-214.4,0-388.3-174-388.3-388.3s174-388.3,388.3-388.3c214.4,0,388.3,174,388.3,388.3
		S2625.5,798.4,2411.1,798.4z M2411.1,51.3c-197.3,0-357.3,161.6-357.3,358.8s160,358.8,358.8,358.8c197.3,0,358.8-160,358.8-358.8
		S2608.4,51.3,2411.1,51.3z"/>
</g>
</svg>
